{"title":"The Scorpion King 3-Battle for Redemption [2012] 1080p Dual Audi","uid":15030518,"size":4159893896,"categoryP":"video","categoryS":"hd___movies","magnet":"?xt=urn:btih:d4a5be5d0f2ecc9d64b193af96d101b02c13ed5d&amp;dn=The+Scorpion+King+3-Battle+for+Redemption+%5B2012%5D+1080p+Dual+Audi&amp;tr=udp%3A%2F%2Ftracker.leechers-paradise.org%3A6969&amp;tr=udp%3A%2F%2Fzer0day.ch%3A1337&amp;tr=udp%3A%2F%2Fopen.demonii.com%3A1337&amp;tr=udp%3A%2F%2Ftracker.coppersurfer.tk%3A6969&amp;tr=udp%3A%2F%2Fexodus.desync.com%3A6969","seeders":2,"leechers":4,"uploader":"Nitish01","files":9,"time":1466543066,"description":":GENERAL INFO:\r\nFormat : Matroska\r\nFormat : Matroska\r\nFile size : 3.84 GiB\r\nDuration : 1h 45mn\r\nOverall bit rate mode : Variable\r\nOverall bit rate : 5 215 Kbps\r\nFrontend And Writing Library : megui\r\nMovie name :The Scorpion King 3-Battle for Redemption [2012] 1080p  Dual Audio  [ Hindi DTS- Eng]  DD 5.1  x264-NITISH_GOYAL.mkv\r\n\r\n\r\n:VIDEO INFO:\r\nID : 1\r\nFormat : AVC\r\nFormat/Info : Advanced Video Codec\r\nFormat profile :   \r\nFormat settings, CABAC : Yes\r\nFormat settings, ReFrames : 5 frames\r\nCodec ID : V_MPEG4/ISO/AVC\r\nDuration : 1h 45mn\r\nBit rate mode : Variable\r\nBit rate : 4 000 Kbps\r\nMaximum bit rate : 40.0 Mbps\r\nWidth : 1 912 pixels\r\nHeight : 816 pixels\r\nDisplay aspect ratio : 2.35:1\r\nFrame rate mode : Constant\r\nFrame rate : 23.976 fps\r\nStream size : 2.94 Gib\r\nLanguage : English\r\nDefault : Yes\r\nForced : No\r\n\r\n\r\n\r\n:AUDIO #1:\r\nID : 2\r\nFormat : DTS\r\nFormat/Info : Audio Coding 3\r\nMode extension : CM (complete main)\r\nFormat settings, Endianness : Big\r\nCodec ID : DTS\r\nDuration : 1h 45mn\r\nBit rate mode : Constant\r\nBit rate : 768 Kbps\r\nChannel(s) : 6 channels\r\nSampling rate : 48.0 KHz\r\nBit depth : 16 bits\r\nCompression mode : Lossy\r\n\r\nStream size : 578 MiB\r\nTitle : 5.1 Nitish Goyal\r\nLanguage : Hindi\r\nDefault : Yes\r\nForced : Yes\r\n\r\n\r\n:AUDIO #2:\r\nID : 3\r\nFormat : AC-3\r\nFormat/Info : Audio Coding 3\r\nMode extension : CM (complete main)\r\nFormat settings, Endianness : Big\r\nCodec ID : A_AC3\r\nDuration : 1h 45mn\r\nBit rate mode : Constant\r\nBit rate : 448 Kbps\r\nChannel(s) : 2 channels\r\nSampling rate : 48.0 KHz\r\nBit depth : 16 bits\r\nCompression mode : Lossy\r\nStream size : 337 MiB\r\nTitle : 5.1 Nitish Goyal\r\nLanguage : English\r\nDefault : No\r\nForced : No","torrent":{"xt":"urn:btih:d4a5be5d0f2ecc9d64b193af96d101b02c13ed5d","amp;dn":"The+Scorpion+King+3-Battle+for+Redemption+%5B2012%5D+1080p+Dual+Audi","amp;tr":["udp%3A%2F%2Ftracker.leechers-paradise.org%3A6969","udp%3A%2F%2Fzer0day.ch%3A1337","udp%3A%2F%2Fopen.demonii.com%3A1337","udp%3A%2F%2Ftracker.coppersurfer.tk%3A6969","udp%3A%2F%2Fexodus.desync.com%3A6969"],"infoHash":"d4a5be5d0f2ecc9d64b193af96d101b02c13ed5d","infoHashBuffer":{"type":"Buffer","data":[212,165,190,93,15,46,204,157,100,177,147,175,150,209,1,176,44,19,237,93]},"announce":[],"urlList":[]}}